<mxfile host="app.diagrams.net" modified="2024-07-21T08:36:46.725Z" agent="Mozilla/5.0 (Windows NT 10.0; Win64; x64) AppleWebKit/537.36 (KHTML, like Gecko) Chrome/126.0.0.0 Safari/537.36" etag="Lcinn8cTZhphC4jwu7X5" version="24.7.2" type="github">
  <diagram id="R2lEEEUBdFMjLlhIrx00" name="Page-1">
    <mxGraphModel dx="2600" dy="1970" grid="1" gridSize="10" guides="1" tooltips="1" connect="1" arrows="1" fold="1" page="1" pageScale="1" pageWidth="850" pageHeight="1100" math="0" shadow="0" extFonts="Permanent Marker^https://fonts.googleapis.com/css?family=Permanent+Marker">
      <root>
        <mxCell id="0" />
        <mxCell id="1" parent="0" />
        <mxCell id="XmhMM7VBwSK6pYgFQ46d-837" value="appointment" style="html=1;dashed=0;whiteSpace=wrap;fontSize=21;fontStyle=1" parent="1" vertex="1">
          <mxGeometry x="800" y="872.5" width="180" height="90" as="geometry" />
        </mxCell>
        <mxCell id="XmhMM7VBwSK6pYgFQ46d-838" value="contract" style="html=1;dashed=0;whiteSpace=wrap;fontSize=21;fontStyle=1" parent="1" vertex="1">
          <mxGeometry x="40" y="662.5" width="195" height="90" as="geometry" />
        </mxCell>
        <mxCell id="XmhMM7VBwSK6pYgFQ46d-839" value="contract_extend" style="html=1;dashed=0;whiteSpace=wrap;fontSize=21;fontStyle=1" parent="1" vertex="1">
          <mxGeometry x="-120" y="842.5" width="180" height="105" as="geometry" />
        </mxCell>
        <mxCell id="XmhMM7VBwSK6pYgFQ46d-840" value="hostel" style="html=1;dashed=0;whiteSpace=wrap;fontSize=21;fontStyle=1" parent="1" vertex="1">
          <mxGeometry x="1140" y="285" width="180" height="80" as="geometry" />
        </mxCell>
        <mxCell id="XmhMM7VBwSK6pYgFQ46d-841" value="hostel_type" style="html=1;dashed=0;whiteSpace=wrap;fontSize=21;fontStyle=1" parent="1" vertex="1">
          <mxGeometry x="1065" y="15" width="185" height="105" as="geometry" />
        </mxCell>
        <mxCell id="XmhMM7VBwSK6pYgFQ46d-842" value="hostel_utilities" style="html=1;dashed=0;whiteSpace=wrap;fontSize=21;fontStyle=1" parent="1" vertex="1">
          <mxGeometry x="1495" y="270" width="180" height="110" as="geometry" />
        </mxCell>
        <mxCell id="XmhMM7VBwSK6pYgFQ46d-843" value="payment_invoice" style="html=1;dashed=0;whiteSpace=wrap;fontSize=21;fontStyle=1" parent="1" vertex="1">
          <mxGeometry x="720" y="195" width="220" height="110" as="geometry" />
        </mxCell>
        <mxCell id="XmhMM7VBwSK6pYgFQ46d-844" value="payment_invoice_detail" style="html=1;dashed=0;whiteSpace=wrap;fontSize=21;fontStyle=1" parent="1" vertex="1">
          <mxGeometry x="665" y="-30" width="260" height="140" as="geometry" />
        </mxCell>
        <mxCell id="XmhMM7VBwSK6pYgFQ46d-845" value="picture" style="html=1;dashed=0;whiteSpace=wrap;fontSize=21;fontStyle=1" parent="1" vertex="1">
          <mxGeometry x="335" y="50" width="180" height="80" as="geometry" />
        </mxCell>
        <mxCell id="XmhMM7VBwSK6pYgFQ46d-846" value="rate" style="html=1;dashed=0;whiteSpace=wrap;fontSize=21;fontStyle=1" parent="1" vertex="1">
          <mxGeometry x="1060" y="877.5" width="150" height="80" as="geometry" />
        </mxCell>
        <mxCell id="XmhMM7VBwSK6pYgFQ46d-847" value="receive_invoice" style="html=1;dashed=0;whiteSpace=wrap;fontSize=21;fontStyle=1" parent="1" vertex="1">
          <mxGeometry x="-50" y="370" width="180" height="120" as="geometry" />
        </mxCell>
        <mxCell id="XmhMM7VBwSK6pYgFQ46d-848" value="receive_invoice_detail" style="html=1;dashed=0;whiteSpace=wrap;fontSize=21;fontStyle=1" parent="1" vertex="1">
          <mxGeometry x="-160" y="100" width="250" height="150" as="geometry" />
        </mxCell>
        <mxCell id="XmhMM7VBwSK6pYgFQ46d-849" value="regulation" style="html=1;dashed=0;whiteSpace=wrap;fontSize=21;fontStyle=1" parent="1" vertex="1">
          <mxGeometry x="1250" y="-210" width="190" height="100" as="geometry" />
        </mxCell>
        <mxCell id="XmhMM7VBwSK6pYgFQ46d-850" value="regulation_hostels" style="html=1;dashed=0;whiteSpace=wrap;fontSize=21;fontStyle=1" parent="1" vertex="1">
          <mxGeometry x="1330" y="-65" width="210" height="90" as="geometry" />
        </mxCell>
        <mxCell id="XmhMM7VBwSK6pYgFQ46d-851" value="role" style="html=1;dashed=0;whiteSpace=wrap;fontSize=21;fontStyle=1" parent="1" vertex="1">
          <mxGeometry x="565" y="752.5" width="100" height="50" as="geometry" />
        </mxCell>
        <mxCell id="XmhMM7VBwSK6pYgFQ46d-852" value="room" style="html=1;dashed=0;whiteSpace=wrap;fontSize=21;fontStyle=1" parent="1" vertex="1">
          <mxGeometry x="1080" y="645" width="170" height="90" as="geometry" />
        </mxCell>
        <mxCell id="XmhMM7VBwSK6pYgFQ46d-853" value="room_type" style="html=1;dashed=0;whiteSpace=wrap;fontSize=21;fontStyle=1" parent="1" vertex="1">
          <mxGeometry x="1330" y="867.5" width="187.5" height="90" as="geometry" />
        </mxCell>
        <mxCell id="XmhMM7VBwSK6pYgFQ46d-855" value="room_utilities" style="html=1;dashed=0;whiteSpace=wrap;fontSize=21;fontStyle=1" parent="1" vertex="1">
          <mxGeometry x="1500" y="610" width="170" height="100" as="geometry" />
        </mxCell>
        <mxCell id="XmhMM7VBwSK6pYgFQ46d-856" value="security_deposit" style="html=1;dashed=0;whiteSpace=wrap;fontSize=21;fontStyle=1" parent="1" vertex="1">
          <mxGeometry x="225" y="832.5" width="205" height="130" as="geometry" />
        </mxCell>
        <mxCell id="XmhMM7VBwSK6pYgFQ46d-857" value="user" style="html=1;dashed=0;whiteSpace=wrap;fontSize=21;fontStyle=1;rotation=0;" parent="1" vertex="1">
          <mxGeometry x="490" y="440" width="100" height="50" as="geometry" />
        </mxCell>
        <mxCell id="XmhMM7VBwSK6pYgFQ46d-858" value="user_roles" style="html=1;dashed=0;whiteSpace=wrap;fontSize=21;fontStyle=1" parent="1" vertex="1">
          <mxGeometry x="550" y="580" width="130" height="70" as="geometry" />
        </mxCell>
        <mxCell id="XmhMM7VBwSK6pYgFQ46d-859" value="utilities" style="html=1;dashed=0;whiteSpace=wrap;fontSize=21;fontStyle=1" parent="1" vertex="1">
          <mxGeometry x="1520" y="475" width="130" height="70" as="geometry" />
        </mxCell>
        <mxCell id="XmhMM7VBwSK6pYgFQ46d-862" value="" style="fontSize=12;html=1;endArrow=ERzeroToMany;startArrow=ERmandOne;rounded=0;entryX=0.25;entryY=0;entryDx=0;entryDy=0;exitX=0.75;exitY=1;exitDx=0;exitDy=0;" parent="1" source="XmhMM7VBwSK6pYgFQ46d-857" target="XmhMM7VBwSK6pYgFQ46d-858" edge="1">
          <mxGeometry width="100" height="100" relative="1" as="geometry">
            <mxPoint x="1000" y="620" as="sourcePoint" />
            <mxPoint x="1660" y="775" as="targetPoint" />
          </mxGeometry>
        </mxCell>
        <mxCell id="kw0xcgH0vQmG0UA2Ox7B-3" value="is assigned" style="edgeLabel;html=1;align=center;verticalAlign=middle;resizable=0;points=[];fontSize=16;" vertex="1" connectable="0" parent="XmhMM7VBwSK6pYgFQ46d-862">
          <mxGeometry x="-0.2172" y="1" relative="1" as="geometry">
            <mxPoint y="-1" as="offset" />
          </mxGeometry>
        </mxCell>
        <mxCell id="XmhMM7VBwSK6pYgFQ46d-863" value="" style="fontSize=12;html=1;endArrow=ERzeroToMany;startArrow=ERmandOne;rounded=0;entryX=0.25;entryY=1;entryDx=0;entryDy=0;exitX=0.5;exitY=0;exitDx=0;exitDy=0;jumpStyle=line;" parent="1" source="XmhMM7VBwSK6pYgFQ46d-851" target="XmhMM7VBwSK6pYgFQ46d-858" edge="1">
          <mxGeometry width="100" height="100" relative="1" as="geometry">
            <mxPoint x="1175" y="705" as="sourcePoint" />
            <mxPoint x="1205" y="550" as="targetPoint" />
          </mxGeometry>
        </mxCell>
        <mxCell id="kw0xcgH0vQmG0UA2Ox7B-2" value="having" style="edgeLabel;html=1;align=center;verticalAlign=middle;resizable=0;points=[];fontSize=16;" vertex="1" connectable="0" parent="XmhMM7VBwSK6pYgFQ46d-863">
          <mxGeometry x="0.0667" y="-4" relative="1" as="geometry">
            <mxPoint y="-1" as="offset" />
          </mxGeometry>
        </mxCell>
        <mxCell id="XmhMM7VBwSK6pYgFQ46d-866" value="" style="fontSize=12;html=1;endArrow=ERzeroToMany;startArrow=ERmandOne;rounded=0;entryX=1;entryY=0.5;entryDx=0;entryDy=0;exitX=0;exitY=0.5;exitDx=0;exitDy=0;jumpStyle=line;" parent="1" source="XmhMM7VBwSK6pYgFQ46d-853" target="XmhMM7VBwSK6pYgFQ46d-852" edge="1">
          <mxGeometry width="100" height="100" relative="1" as="geometry">
            <mxPoint x="1100" y="460" as="sourcePoint" />
            <mxPoint x="1185" y="330" as="targetPoint" />
          </mxGeometry>
        </mxCell>
        <mxCell id="kw0xcgH0vQmG0UA2Ox7B-18" value="is assigned" style="edgeLabel;html=1;align=center;verticalAlign=middle;resizable=0;points=[];" vertex="1" connectable="0" parent="XmhMM7VBwSK6pYgFQ46d-866">
          <mxGeometry x="-0.1042" y="-1" relative="1" as="geometry">
            <mxPoint y="1" as="offset" />
          </mxGeometry>
        </mxCell>
        <mxCell id="XmhMM7VBwSK6pYgFQ46d-868" value="" style="fontSize=12;html=1;endArrow=ERzeroToMany;startArrow=ERmandOne;rounded=0;entryX=0;entryY=0.5;entryDx=0;entryDy=0;exitX=1;exitY=0.25;exitDx=0;exitDy=0;" parent="1" source="XmhMM7VBwSK6pYgFQ46d-852" target="XmhMM7VBwSK6pYgFQ46d-855" edge="1">
          <mxGeometry width="100" height="100" relative="1" as="geometry">
            <mxPoint x="960" y="530" as="sourcePoint" />
            <mxPoint x="1040" y="570" as="targetPoint" />
          </mxGeometry>
        </mxCell>
        <mxCell id="kw0xcgH0vQmG0UA2Ox7B-16" value="is assigned" style="edgeLabel;html=1;align=center;verticalAlign=middle;resizable=0;points=[];" vertex="1" connectable="0" parent="XmhMM7VBwSK6pYgFQ46d-868">
          <mxGeometry x="-0.2038" y="-5" relative="1" as="geometry">
            <mxPoint as="offset" />
          </mxGeometry>
        </mxCell>
        <mxCell id="XmhMM7VBwSK6pYgFQ46d-870" value="" style="fontSize=12;html=1;endArrow=ERzeroToMany;startArrow=ERmandOne;rounded=0;entryX=0.5;entryY=0;entryDx=0;entryDy=0;exitX=0.5;exitY=1;exitDx=0;exitDy=0;" parent="1" source="XmhMM7VBwSK6pYgFQ46d-859" target="XmhMM7VBwSK6pYgFQ46d-855" edge="1">
          <mxGeometry width="100" height="100" relative="1" as="geometry">
            <mxPoint x="1335" y="375" as="sourcePoint" />
            <mxPoint x="1480" y="255" as="targetPoint" />
          </mxGeometry>
        </mxCell>
        <mxCell id="kw0xcgH0vQmG0UA2Ox7B-15" value="having" style="edgeLabel;html=1;align=center;verticalAlign=middle;resizable=0;points=[];" vertex="1" connectable="0" parent="XmhMM7VBwSK6pYgFQ46d-870">
          <mxGeometry x="-0.1487" y="-2" relative="1" as="geometry">
            <mxPoint y="-1" as="offset" />
          </mxGeometry>
        </mxCell>
        <mxCell id="XmhMM7VBwSK6pYgFQ46d-871" value="" style="fontSize=12;html=1;endArrow=ERzeroToMany;startArrow=ERmandOne;rounded=0;entryX=0;entryY=0.5;entryDx=0;entryDy=0;exitX=1;exitY=0.5;exitDx=0;exitDy=0;" parent="1" source="XmhMM7VBwSK6pYgFQ46d-840" target="XmhMM7VBwSK6pYgFQ46d-842" edge="1">
          <mxGeometry width="100" height="100" relative="1" as="geometry">
            <mxPoint x="1345" y="385" as="sourcePoint" />
            <mxPoint x="1490" y="265" as="targetPoint" />
          </mxGeometry>
        </mxCell>
        <mxCell id="kw0xcgH0vQmG0UA2Ox7B-13" value="is assigned" style="edgeLabel;html=1;align=center;verticalAlign=middle;resizable=0;points=[];" vertex="1" connectable="0" parent="XmhMM7VBwSK6pYgFQ46d-871">
          <mxGeometry x="0.0514" y="1" relative="1" as="geometry">
            <mxPoint as="offset" />
          </mxGeometry>
        </mxCell>
        <mxCell id="XmhMM7VBwSK6pYgFQ46d-872" value="" style="fontSize=12;html=1;endArrow=ERzeroToMany;startArrow=ERmandOne;rounded=0;entryX=0.5;entryY=1;entryDx=0;entryDy=0;exitX=0.5;exitY=0;exitDx=0;exitDy=0;" parent="1" source="XmhMM7VBwSK6pYgFQ46d-859" target="XmhMM7VBwSK6pYgFQ46d-842" edge="1">
          <mxGeometry width="100" height="100" relative="1" as="geometry">
            <mxPoint x="1355" y="395" as="sourcePoint" />
            <mxPoint x="1500" y="275" as="targetPoint" />
          </mxGeometry>
        </mxCell>
        <mxCell id="kw0xcgH0vQmG0UA2Ox7B-14" value="having" style="edgeLabel;html=1;align=center;verticalAlign=middle;resizable=0;points=[];" vertex="1" connectable="0" parent="XmhMM7VBwSK6pYgFQ46d-872">
          <mxGeometry x="-0.1088" relative="1" as="geometry">
            <mxPoint y="-1" as="offset" />
          </mxGeometry>
        </mxCell>
        <mxCell id="XmhMM7VBwSK6pYgFQ46d-873" value="" style="fontSize=12;html=1;endArrow=ERzeroToMany;startArrow=ERmandOne;rounded=0;entryX=0.25;entryY=0;entryDx=0;entryDy=0;exitX=0.5;exitY=1;exitDx=0;exitDy=0;" parent="1" source="XmhMM7VBwSK6pYgFQ46d-840" target="XmhMM7VBwSK6pYgFQ46d-852" edge="1">
          <mxGeometry width="100" height="100" relative="1" as="geometry">
            <mxPoint x="1365" y="405" as="sourcePoint" />
            <mxPoint x="1510" y="285" as="targetPoint" />
          </mxGeometry>
        </mxCell>
        <mxCell id="XmhMM7VBwSK6pYgFQ46d-874" value="" style="fontSize=12;html=1;endArrow=ERzeroToMany;startArrow=ERmandOne;rounded=0;entryX=0.5;entryY=1;entryDx=0;entryDy=0;exitX=0.5;exitY=0;exitDx=0;exitDy=0;" parent="1" source="XmhMM7VBwSK6pYgFQ46d-840" target="XmhMM7VBwSK6pYgFQ46d-850" edge="1">
          <mxGeometry width="100" height="100" relative="1" as="geometry">
            <mxPoint x="1460" y="115" as="sourcePoint" />
            <mxPoint x="1750" y="120" as="targetPoint" />
          </mxGeometry>
        </mxCell>
        <mxCell id="kw0xcgH0vQmG0UA2Ox7B-11" value="is assign to" style="edgeLabel;html=1;align=center;verticalAlign=middle;resizable=0;points=[];" vertex="1" connectable="0" parent="XmhMM7VBwSK6pYgFQ46d-874">
          <mxGeometry x="-0.2613" relative="1" as="geometry">
            <mxPoint y="-1" as="offset" />
          </mxGeometry>
        </mxCell>
        <mxCell id="XmhMM7VBwSK6pYgFQ46d-875" value="" style="fontSize=12;html=1;endArrow=ERzeroToMany;startArrow=ERmandOne;rounded=0;entryX=0.5;entryY=0;entryDx=0;entryDy=0;exitX=0.5;exitY=1;exitDx=0;exitDy=0;" parent="1" source="XmhMM7VBwSK6pYgFQ46d-849" target="XmhMM7VBwSK6pYgFQ46d-850" edge="1">
          <mxGeometry width="100" height="100" relative="1" as="geometry">
            <mxPoint x="1470" y="125" as="sourcePoint" />
            <mxPoint x="1760" y="130" as="targetPoint" />
          </mxGeometry>
        </mxCell>
        <mxCell id="kw0xcgH0vQmG0UA2Ox7B-12" value="having" style="edgeLabel;html=1;align=center;verticalAlign=middle;resizable=0;points=[];" vertex="1" connectable="0" parent="XmhMM7VBwSK6pYgFQ46d-875">
          <mxGeometry x="-0.2207" y="1" relative="1" as="geometry">
            <mxPoint x="-1" as="offset" />
          </mxGeometry>
        </mxCell>
        <mxCell id="XmhMM7VBwSK6pYgFQ46d-876" value="" style="fontSize=12;html=1;endArrow=ERzeroToMany;startArrow=ERmandOne;rounded=0;entryX=0.25;entryY=0;entryDx=0;entryDy=0;exitX=0.5;exitY=1;exitDx=0;exitDy=0;" parent="1" source="XmhMM7VBwSK6pYgFQ46d-841" target="XmhMM7VBwSK6pYgFQ46d-840" edge="1">
          <mxGeometry width="100" height="100" relative="1" as="geometry">
            <mxPoint x="1480" y="135" as="sourcePoint" />
            <mxPoint x="1770" y="140" as="targetPoint" />
          </mxGeometry>
        </mxCell>
        <mxCell id="kw0xcgH0vQmG0UA2Ox7B-17" value="is assigned" style="edgeLabel;html=1;align=center;verticalAlign=middle;resizable=0;points=[];" vertex="1" connectable="0" parent="XmhMM7VBwSK6pYgFQ46d-876">
          <mxGeometry x="-0.0011" y="-2" relative="1" as="geometry">
            <mxPoint as="offset" />
          </mxGeometry>
        </mxCell>
        <mxCell id="XmhMM7VBwSK6pYgFQ46d-877" value="" style="fontSize=12;html=1;endArrow=ERzeroToMany;startArrow=ERmandOne;rounded=0;entryX=0.5;entryY=0;entryDx=0;entryDy=0;exitX=0.25;exitY=1;exitDx=0;exitDy=0;" parent="1" source="XmhMM7VBwSK6pYgFQ46d-838" target="XmhMM7VBwSK6pYgFQ46d-839" edge="1">
          <mxGeometry width="100" height="100" relative="1" as="geometry">
            <mxPoint x="810" y="627.5" as="sourcePoint" />
            <mxPoint x="900" y="547.5" as="targetPoint" />
          </mxGeometry>
        </mxCell>
        <mxCell id="kw0xcgH0vQmG0UA2Ox7B-5" value="is part of" style="edgeLabel;html=1;align=center;verticalAlign=middle;resizable=0;points=[];" vertex="1" connectable="0" parent="XmhMM7VBwSK6pYgFQ46d-877">
          <mxGeometry x="-0.0385" y="-1" relative="1" as="geometry">
            <mxPoint as="offset" />
          </mxGeometry>
        </mxCell>
        <mxCell id="XmhMM7VBwSK6pYgFQ46d-878" value="" style="fontSize=12;html=1;endArrow=ERzeroToMany;startArrow=ERmandOne;rounded=0;entryX=0.5;entryY=0;entryDx=0;entryDy=0;exitX=0.25;exitY=1;exitDx=0;exitDy=0;" parent="1" source="XmhMM7VBwSK6pYgFQ46d-852" target="XmhMM7VBwSK6pYgFQ46d-846" edge="1">
          <mxGeometry width="100" height="100" relative="1" as="geometry">
            <mxPoint x="950" y="650" as="sourcePoint" />
            <mxPoint x="1040" y="570" as="targetPoint" />
          </mxGeometry>
        </mxCell>
        <mxCell id="kw0xcgH0vQmG0UA2Ox7B-1" value="Having" style="edgeLabel;html=1;align=center;verticalAlign=middle;resizable=0;points=[];fontSize=16;" vertex="1" connectable="0" parent="XmhMM7VBwSK6pYgFQ46d-878">
          <mxGeometry x="-0.1881" y="-6" relative="1" as="geometry">
            <mxPoint as="offset" />
          </mxGeometry>
        </mxCell>
        <mxCell id="XmhMM7VBwSK6pYgFQ46d-879" value="" style="fontSize=12;html=1;endArrow=ERzeroToMany;startArrow=ERmandOne;rounded=0;entryX=0.5;entryY=1;entryDx=0;entryDy=0;exitX=0.5;exitY=0;exitDx=0;exitDy=0;" parent="1" source="XmhMM7VBwSK6pYgFQ46d-843" target="XmhMM7VBwSK6pYgFQ46d-844" edge="1">
          <mxGeometry width="100" height="100" relative="1" as="geometry">
            <mxPoint x="480" y="-325" as="sourcePoint" />
            <mxPoint x="602" y="-210" as="targetPoint" />
          </mxGeometry>
        </mxCell>
        <mxCell id="kw0xcgH0vQmG0UA2Ox7B-10" value="is part of" style="edgeLabel;html=1;align=center;verticalAlign=middle;resizable=0;points=[];" vertex="1" connectable="0" parent="XmhMM7VBwSK6pYgFQ46d-879">
          <mxGeometry x="0.0868" relative="1" as="geometry">
            <mxPoint as="offset" />
          </mxGeometry>
        </mxCell>
        <mxCell id="XmhMM7VBwSK6pYgFQ46d-880" value="" style="fontSize=12;html=1;endArrow=ERzeroToMany;startArrow=ERmandOne;rounded=0;entryX=0.5;entryY=1;entryDx=0;entryDy=0;exitX=0.5;exitY=0;exitDx=0;exitDy=0;" parent="1" source="XmhMM7VBwSK6pYgFQ46d-847" target="XmhMM7VBwSK6pYgFQ46d-848" edge="1">
          <mxGeometry width="100" height="100" relative="1" as="geometry">
            <mxPoint x="390" y="235" as="sourcePoint" />
            <mxPoint x="512" y="350" as="targetPoint" />
          </mxGeometry>
        </mxCell>
        <mxCell id="kw0xcgH0vQmG0UA2Ox7B-9" value="is part of" style="edgeLabel;html=1;align=center;verticalAlign=middle;resizable=0;points=[];" vertex="1" connectable="0" parent="XmhMM7VBwSK6pYgFQ46d-880">
          <mxGeometry x="0.0697" y="2" relative="1" as="geometry">
            <mxPoint x="-1" as="offset" />
          </mxGeometry>
        </mxCell>
        <mxCell id="XmhMM7VBwSK6pYgFQ46d-886" value="" style="fontSize=12;html=1;endArrow=ERmandOne;startArrow=ERmandOne;rounded=0;entryX=0.5;entryY=0;entryDx=0;entryDy=0;exitX=0.75;exitY=1;exitDx=0;exitDy=0;" parent="1" source="XmhMM7VBwSK6pYgFQ46d-838" target="XmhMM7VBwSK6pYgFQ46d-856" edge="1">
          <mxGeometry width="100" height="100" relative="1" as="geometry">
            <mxPoint x="440" y="907.5" as="sourcePoint" />
            <mxPoint x="630" y="27.5" as="targetPoint" />
            <Array as="points" />
          </mxGeometry>
        </mxCell>
        <mxCell id="kw0xcgH0vQmG0UA2Ox7B-6" value="having" style="edgeLabel;html=1;align=center;verticalAlign=middle;resizable=0;points=[];" vertex="1" connectable="0" parent="XmhMM7VBwSK6pYgFQ46d-886">
          <mxGeometry x="-0.2125" y="2" relative="1" as="geometry">
            <mxPoint x="1" as="offset" />
          </mxGeometry>
        </mxCell>
        <mxCell id="XmhMM7VBwSK6pYgFQ46d-889" value="" style="fontSize=12;html=1;endArrow=ERzeroToMany;startArrow=ERmandOne;rounded=0;entryX=0.5;entryY=1;entryDx=0;entryDy=0;exitX=0.5;exitY=0;exitDx=0;exitDy=0;" parent="1" source="XmhMM7VBwSK6pYgFQ46d-838" target="XmhMM7VBwSK6pYgFQ46d-847" edge="1">
          <mxGeometry width="100" height="100" relative="1" as="geometry">
            <mxPoint x="463" y="670" as="sourcePoint" />
            <mxPoint x="388" y="550" as="targetPoint" />
          </mxGeometry>
        </mxCell>
        <mxCell id="kw0xcgH0vQmG0UA2Ox7B-8" value="depend on" style="edgeLabel;html=1;align=center;verticalAlign=middle;resizable=0;points=[];" vertex="1" connectable="0" parent="XmhMM7VBwSK6pYgFQ46d-889">
          <mxGeometry x="-0.0048" y="-3" relative="1" as="geometry">
            <mxPoint as="offset" />
          </mxGeometry>
        </mxCell>
        <mxCell id="XmhMM7VBwSK6pYgFQ46d-890" value="" style="fontSize=12;html=1;endArrow=ERzeroToMany;startArrow=ERzeroToOne;rounded=0;exitX=0.25;exitY=1;exitDx=0;exitDy=0;entryX=1;entryY=0.5;entryDx=0;entryDy=0;" parent="1" source="XmhMM7VBwSK6pYgFQ46d-857" target="XmhMM7VBwSK6pYgFQ46d-838" edge="1">
          <mxGeometry width="100" height="100" relative="1" as="geometry">
            <mxPoint x="970" y="550" as="sourcePoint" />
            <mxPoint x="1070" y="450" as="targetPoint" />
          </mxGeometry>
        </mxCell>
        <mxCell id="XmhMM7VBwSK6pYgFQ46d-891" value="" style="fontSize=12;html=1;endArrow=ERzeroToMany;startArrow=ERmandOne;rounded=0;entryX=1;entryY=0.5;entryDx=0;entryDy=0;exitX=0;exitY=0.5;exitDx=0;exitDy=0;" parent="1" source="XmhMM7VBwSK6pYgFQ46d-840" target="XmhMM7VBwSK6pYgFQ46d-843" edge="1">
          <mxGeometry width="100" height="100" relative="1" as="geometry">
            <mxPoint x="940" y="657.5" as="sourcePoint" />
            <mxPoint x="920" y="387.5" as="targetPoint" />
          </mxGeometry>
        </mxCell>
        <mxCell id="XmhMM7VBwSK6pYgFQ46d-892" value="" style="fontSize=12;html=1;endArrow=ERzeroToMany;startArrow=ERmandOne;rounded=0;entryX=0.75;entryY=1;entryDx=0;entryDy=0;exitX=0;exitY=0.25;exitDx=0;exitDy=0;" parent="1" source="XmhMM7VBwSK6pYgFQ46d-852" target="XmhMM7VBwSK6pYgFQ46d-843" edge="1">
          <mxGeometry width="100" height="100" relative="1" as="geometry">
            <mxPoint x="850" y="215" as="sourcePoint" />
            <mxPoint x="830" y="-55" as="targetPoint" />
          </mxGeometry>
        </mxCell>
        <mxCell id="kw0xcgH0vQmG0UA2Ox7B-22" value="having" style="edgeLabel;html=1;align=center;verticalAlign=middle;resizable=0;points=[];" vertex="1" connectable="0" parent="XmhMM7VBwSK6pYgFQ46d-892">
          <mxGeometry x="-0.0253" relative="1" as="geometry">
            <mxPoint x="-1" as="offset" />
          </mxGeometry>
        </mxCell>
        <mxCell id="XmhMM7VBwSK6pYgFQ46d-893" value="" style="fontSize=12;html=1;endArrow=ERmandOne;startArrow=ERmandOne;rounded=0;entryX=0;entryY=0.5;entryDx=0;entryDy=0;exitX=1;exitY=0.75;exitDx=0;exitDy=0;" parent="1" source="XmhMM7VBwSK6pYgFQ46d-838" target="XmhMM7VBwSK6pYgFQ46d-852" edge="1">
          <mxGeometry width="100" height="100" relative="1" as="geometry">
            <mxPoint x="196" y="763" as="sourcePoint" />
            <mxPoint x="338" y="843" as="targetPoint" />
          </mxGeometry>
        </mxCell>
        <mxCell id="kw0xcgH0vQmG0UA2Ox7B-4" value="Text" style="edgeLabel;html=1;align=center;verticalAlign=middle;resizable=0;points=[];" vertex="1" connectable="0" parent="XmhMM7VBwSK6pYgFQ46d-893">
          <mxGeometry x="0.0842" y="1" relative="1" as="geometry">
            <mxPoint as="offset" />
          </mxGeometry>
        </mxCell>
        <mxCell id="XmhMM7VBwSK6pYgFQ46d-894" value="" style="fontSize=12;html=1;endArrow=ERzeroToMany;startArrow=ERmandOne;rounded=0;entryX=1;entryY=0.5;entryDx=0;entryDy=0;exitX=0;exitY=0.25;exitDx=0;exitDy=0;" parent="1" source="XmhMM7VBwSK6pYgFQ46d-857" target="XmhMM7VBwSK6pYgFQ46d-847" edge="1">
          <mxGeometry width="100" height="100" relative="1" as="geometry">
            <mxPoint x="760" y="520" as="sourcePoint" />
            <mxPoint x="860" y="420" as="targetPoint" />
          </mxGeometry>
        </mxCell>
        <mxCell id="XmhMM7VBwSK6pYgFQ46d-895" value="" style="fontSize=12;html=1;endArrow=ERzeroToMany;startArrow=ERmandOne;rounded=0;entryX=0.25;entryY=1;entryDx=0;entryDy=0;exitX=1;exitY=0;exitDx=0;exitDy=0;" parent="1" source="XmhMM7VBwSK6pYgFQ46d-857" target="XmhMM7VBwSK6pYgFQ46d-843" edge="1">
          <mxGeometry width="100" height="100" relative="1" as="geometry">
            <mxPoint x="500" y="472" as="sourcePoint" />
            <mxPoint x="140" y="440" as="targetPoint" />
          </mxGeometry>
        </mxCell>
        <mxCell id="XmhMM7VBwSK6pYgFQ46d-896" value="" style="fontSize=12;html=1;endArrow=ERzeroToMany;startArrow=ERzeroToOne;rounded=0;exitX=1;exitY=0.5;exitDx=0;exitDy=0;entryX=0;entryY=0.75;entryDx=0;entryDy=0;" parent="1" source="XmhMM7VBwSK6pYgFQ46d-857" target="XmhMM7VBwSK6pYgFQ46d-840" edge="1">
          <mxGeometry width="100" height="100" relative="1" as="geometry">
            <mxPoint x="790" y="390" as="sourcePoint" />
            <mxPoint x="890" y="290" as="targetPoint" />
          </mxGeometry>
        </mxCell>
        <mxCell id="kw0xcgH0vQmG0UA2Ox7B-23" value="manage" style="edgeLabel;html=1;align=center;verticalAlign=middle;resizable=0;points=[];" vertex="1" connectable="0" parent="XmhMM7VBwSK6pYgFQ46d-896">
          <mxGeometry x="-0.0523" relative="1" as="geometry">
            <mxPoint as="offset" />
          </mxGeometry>
        </mxCell>
        <mxCell id="kw0xcgH0vQmG0UA2Ox7B-20" value="" style="fontSize=12;html=1;endArrow=ERzeroToMany;startArrow=ERmandOne;rounded=0;entryX=1;entryY=0;entryDx=0;entryDy=0;exitX=0;exitY=1;exitDx=0;exitDy=0;" edge="1" parent="1" source="XmhMM7VBwSK6pYgFQ46d-852" target="XmhMM7VBwSK6pYgFQ46d-837">
          <mxGeometry width="100" height="100" relative="1" as="geometry">
            <mxPoint x="1133" y="745" as="sourcePoint" />
            <mxPoint x="1145" y="888" as="targetPoint" />
          </mxGeometry>
        </mxCell>
        <mxCell id="kw0xcgH0vQmG0UA2Ox7B-21" value="Having" style="edgeLabel;html=1;align=center;verticalAlign=middle;resizable=0;points=[];fontSize=16;" vertex="1" connectable="0" parent="kw0xcgH0vQmG0UA2Ox7B-20">
          <mxGeometry x="-0.1881" y="-6" relative="1" as="geometry">
            <mxPoint as="offset" />
          </mxGeometry>
        </mxCell>
      </root>
    </mxGraphModel>
  </diagram>
</mxfile>
